<svg xmlns="http://www.w3.org/2000/svg" viewBox="0 0 1000 1000">
<defs>
<linearGradient id="bg" x1="0" y1="0" x2="1" y2="1"><stop offset="0" stop-color="#db2777"/><stop offset="1" stop-color="#f472b6"/></linearGradient>
<radialGradient id="glow" cx="0.5" cy="0.5" r="0.5"><stop offset="0" stop-color="#ffffff" stop-opacity="0.28"/><stop offset="1" stop-color="#ffffff" stop-opacity="0"/></radialGradient>
</defs>
<rect width="1000" height="1000" fill="url(#bg)"/>
<circle cx="810" cy="170" r="300" fill="url(#glow)"/>
<circle cx="140" cy="860" r="340" fill="#ffffff" opacity="0.05"/>
<circle cx="880" cy="820" r="180" fill="#ffffff" opacity="0.06"/>
<circle cx="120" cy="130" r="90" fill="#ffffff" opacity="0.07"/>
<g transform="translate(500 500) scale(15) translate(-12 -12)"><g fill="none" stroke="#ffffff" stroke-width="1.6" stroke-linecap="round" stroke-linejoin="round"><path d="M16 10a4 4 0 0 1-8 0" />
  <path d="M3.103 6.034h17.794" />
  <path d="M3.4 5.467a2 2 0 0 0-.4 1.2V20a2 2 0 0 0 2 2h14a2 2 0 0 0 2-2V6.667a2 2 0 0 0-.4-1.2l-2-2.667A2 2 0 0 0 17 2H7a2 2 0 0 0-1.6.8z" /></g></g>
</svg>