<svg xmlns="http://www.w3.org/2000/svg" viewBox="0 0 1000 1000">
<defs>
<linearGradient id="bg" x1="0" y1="0" x2="1" y2="1"><stop offset="0" stop-color="#2563eb"/><stop offset="1" stop-color="#06b6d4"/></linearGradient>
<radialGradient id="glow" cx="0.5" cy="0.5" r="0.5"><stop offset="0" stop-color="#ffffff" stop-opacity="0.28"/><stop offset="1" stop-color="#ffffff" stop-opacity="0"/></radialGradient>
</defs>
<rect width="1000" height="1000" fill="url(#bg)"/>
<circle cx="810" cy="170" r="300" fill="url(#glow)"/>
<circle cx="140" cy="860" r="340" fill="#ffffff" opacity="0.05"/>
<circle cx="880" cy="820" r="180" fill="#ffffff" opacity="0.06"/>
<circle cx="120" cy="130" r="90" fill="#ffffff" opacity="0.07"/>
<g transform="translate(500 500) scale(15) translate(-12 -12)"><g fill="none" stroke="#ffffff" stroke-width="1.6" stroke-linecap="round" stroke-linejoin="round"><path d="M12 10v2.2l1.6 1" />
  <path d="m16.13 7.66-.81-4.05a2 2 0 0 0-2-1.61h-2.68a2 2 0 0 0-2 1.61l-.78 4.05" />
  <path d="m7.88 16.36.8 4a2 2 0 0 0 2 1.61h2.72a2 2 0 0 0 2-1.61l.81-4.05" />
  <circle cx="12" cy="12" r="6" /></g></g>
</svg>