<svg xmlns="http://www.w3.org/2000/svg" viewBox="0 0 1000 1000">
<defs>
<linearGradient id="bg" x1="0" y1="0" x2="1" y2="1"><stop offset="0" stop-color="#e11d48"/><stop offset="1" stop-color="#f9a8d4"/></linearGradient>
<radialGradient id="glow" cx="0.5" cy="0.5" r="0.5"><stop offset="0" stop-color="#ffffff" stop-opacity="0.28"/><stop offset="1" stop-color="#ffffff" stop-opacity="0"/></radialGradient>
</defs>
<rect width="1000" height="1000" fill="url(#bg)"/>
<circle cx="810" cy="170" r="300" fill="url(#glow)"/>
<circle cx="140" cy="860" r="340" fill="#ffffff" opacity="0.05"/>
<circle cx="880" cy="820" r="180" fill="#ffffff" opacity="0.06"/>
<circle cx="120" cy="130" r="90" fill="#ffffff" opacity="0.07"/>
<g transform="translate(500 500) scale(15) translate(-12 -12)"><g fill="none" stroke="#ffffff" stroke-width="1.6" stroke-linecap="round" stroke-linejoin="round"><path d="M7 16.3c2.2 0 4-1.83 4-4.05 0-1.16-.57-2.26-1.71-3.19S7.29 6.75 7 5.3c-.29 1.45-1.14 2.84-2.29 3.76S3 11.1 3 12.25c0 2.22 1.8 4.05 4 4.05z" />
  <path d="M12.56 6.6A10.97 10.97 0 0 0 14 3.02c.5 2.5 2 4.9 4 6.5s3 3.5 3 5.5a6.98 6.98 0 0 1-11.91 4.97" /></g></g>
</svg>